#define full_width 14
#define full_height 9
static unsigned char full_bits[] = {
   0x00, 0x00, 0xfe, 0x1f, 0x02, 0x10, 0x02, 0x10, 0x02, 0x10, 0x02, 0x10,
   0x02, 0x10, 0xfe, 0x1f, 0x00, 0x00 };
