#define left_width 11
#define left_height 16
static unsigned char left_bits[] = {
   0xfe, 0x07, 0xff, 0x07, 0xff, 0x07, 0xfe, 0x07, 0xfe, 0x07, 0xfe, 0x07,
   0xfe, 0x07, 0xfc, 0x07, 0xfc, 0x07, 0xfc, 0x07, 0xf8, 0x07, 0xf8, 0x07,
   0xf8, 0x07, 0xf0, 0x07, 0xf0, 0x07, 0xe0, 0x07 };
