#define right_width 11
#define right_height 16
static unsigned char right_bits[] = {
   0x3f, 0x00, 0x7f, 0x00, 0x7f, 0x00, 0xff, 0x00, 0xff, 0x00, 0xff, 0x00,
   0xff, 0x01, 0xff, 0x01, 0xff, 0x01, 0xff, 0x01, 0xff, 0x03, 0xff, 0x03,
   0xff, 0x03, 0xff, 0x07, 0xff, 0x07, 0xff, 0x03 };
