#define simpleTabbed_width 14
#define simpleTabbed_height 9
static unsigned char simpleTabbed_bits[] = {
   0x00, 0x00, 0xfe, 0x1f, 0x22, 0x11, 0xfe, 0x1f, 0x02, 0x10, 0x02, 0x10,
   0x02, 0x10, 0xfe, 0x1f, 0x00, 0x00 };
