#define SplitGrid_width 14
#define SplitGrid_height 9
static unsigned char SplitGrid_bits[] = {
   0x00, 0x00, 0xfe, 0x1f, 0x42, 0x12, 0x42, 0x12, 0xc2, 0x1f, 0x42, 0x12,
   0x42, 0x12, 0xfe, 0x1f, 0x00, 0x00 };
