#define Tall_width 14
#define Tall_height 9
static unsigned char Tall_bits[] = {
   0x00, 0x00, 0xfe, 0x1f, 0x42, 0x10, 0x42, 0x10, 0xc2, 0x1f, 0x42, 0x10,
   0x42, 0x10, 0xfe, 0x1f, 0x00, 0x00 };
